<?xml version="1.0" encoding="UTF-8"?>
<svg id="Layer_1" data-name="Layer 1" xmlns="http://www.w3.org/2000/svg" viewBox="0 0 493.38 66.25">
  <defs>
    <style>
      .cls-1 {
        fill: #fff;
      }
    </style>
  </defs>
  <g>
    <path class="cls-1" d="M464.29,12.16h4.69v2.27h-7.55V.19h2.86v11.98h0Z"/>
    <path class="cls-1" d="M473.65,12.16h4.69v2.27h-7.55V.19h2.86v11.98h0Z"/>
    <path class="cls-1" d="M480.42,3.52c.63-1.11,1.5-1.97,2.59-2.59,1.1-.62,2.32-.93,3.68-.93,1.59,0,2.99.41,4.18,1.22,1.2.82,2.03,1.95,2.51,3.39h-3.29c-.33-.68-.79-1.19-1.38-1.53s-1.28-.51-2.05-.51c-.83,0-1.57.19-2.21.58-.65.39-1.15.94-1.51,1.64s-.54,1.54-.54,2.49.18,1.77.54,2.48c.36.71.86,1.27,1.51,1.65.65.39,1.38.58,2.21.58.78,0,1.46-.17,2.05-.52s1.05-.86,1.38-1.54h3.29c-.48,1.46-1.31,2.59-2.5,3.4s-2.59,1.21-4.19,1.21c-1.36,0-2.59-.31-3.68-.93-1.1-.62-1.96-1.48-2.59-2.58s-.95-2.35-.95-3.75.32-2.66.95-3.76Z"/>
  </g>
  <g>
    <path class="cls-1" d="M87.77,21.81c1.61-.92,3.45-1.39,5.52-1.39v8.16h-2.05c-2.44,0-4.28.57-5.52,1.72s-1.86,3.15-1.86,5.99v15.32h-7.77v-30.75h7.77v4.77c1-1.63,2.3-2.9,3.91-3.83h0Z"/>
    <path class="cls-1" d="M122.04,21.94c1.81,1.02,3.23,2.52,4.25,4.5s1.53,4.36,1.53,7.13v18.04h-7.77v-16.98c0-2.44-.61-4.32-1.83-5.63s-2.89-1.97-5-1.97-3.84.66-5.08,1.97c-1.24,1.31-1.86,3.19-1.86,5.63v16.98h-7.77V10.54h7.77v14.15c1-1.33,2.33-2.38,4-3.14s3.51-1.14,5.55-1.14c2.33,0,4.4.51,6.22,1.53h0Z"/>
    <path class="cls-1" d="M153.4,51.61l-10.43-13.1v13.1h-7.77V10.54h7.77v23.37l10.32-13.04h10.1l-13.54,15.43,13.65,15.32h-10.1Z"/>
    <path class="cls-1" d="M192.72,21.78c1.76-.94,3.76-1.42,6.02-1.42,2.63,0,5,.65,7.13,1.94,2.13,1.3,3.81,3.14,5.05,5.52,1.24,2.39,1.86,5.15,1.86,8.3s-.62,5.93-1.86,8.35c-1.24,2.42-2.92,4.3-5.05,5.63-2.13,1.33-4.5,2-7.13,2-2.26,0-4.25-.46-5.97-1.39-1.72-.92-3.12-2.09-4.19-3.5v19.04h-7.77V20.85h7.77v4.44c1-1.41,2.38-2.58,4.13-3.52h0ZM203.71,31.32c-.76-1.35-1.76-2.38-3-3.08s-2.58-1.05-4.02-1.05-2.73.36-3.97,1.08-2.24,1.77-3,3.14-1.14,2.98-1.14,4.83.38,3.46,1.14,4.83c.76,1.37,1.76,2.41,3,3.14s2.56,1.08,3.97,1.08,2.78-.37,4.02-1.11,2.24-1.79,3-3.16,1.14-3,1.14-4.88-.38-3.45-1.14-4.8v-.02Z"/>
    <path class="cls-1" d="M230.12,21.81c1.61-.92,3.45-1.39,5.52-1.39v8.16h-2.05c-2.44,0-4.28.57-5.52,1.72s-1.86,3.15-1.86,5.99v15.32h-7.77v-30.75h7.77v4.77c1-1.63,2.3-2.9,3.91-3.83h0Z"/>
    <path class="cls-1" d="M246.52,50.14c-2.37-1.31-4.23-3.17-5.58-5.58-1.35-2.4-2.03-5.18-2.03-8.32s.69-5.92,2.08-8.33c1.39-2.4,3.28-4.26,5.69-5.58s5.09-1.97,8.05-1.97,5.64.66,8.05,1.97,4.3,3.17,5.69,5.58c1.39,2.41,2.08,5.18,2.08,8.33s-.71,5.92-2.14,8.32c-1.42,2.41-3.35,4.26-5.77,5.58-2.42,1.31-5.13,1.97-8.13,1.97s-5.62-.66-7.99-1.97h0ZM258.48,44.31c1.24-.68,2.23-1.71,2.97-3.08s1.11-3.03,1.11-5c0-2.92-.77-5.17-2.3-6.74-1.54-1.57-3.41-2.36-5.63-2.36s-4.08.79-5.58,2.36-2.25,3.82-2.25,6.74.73,5.17,2.19,6.74,3.3,2.36,5.52,2.36c1.41,0,2.73-.34,3.97-1.03h0Z"/>
    <path class="cls-1" d="M288.17,21.78c1.76-.94,3.76-1.42,6.02-1.42,2.63,0,5,.65,7.13,1.94,2.13,1.3,3.81,3.14,5.05,5.52,1.24,2.39,1.86,5.15,1.86,8.3s-.62,5.93-1.86,8.35c-1.24,2.42-2.92,4.3-5.05,5.63-2.13,1.33-4.5,2-7.13,2-2.26,0-4.25-.46-5.97-1.39-1.72-.92-3.12-2.09-4.19-3.5v19.04h-7.77V20.85h7.77v4.44c1-1.41,2.38-2.58,4.13-3.52h.01ZM299.16,31.32c-.76-1.35-1.76-2.38-3-3.08s-2.58-1.05-4.02-1.05-2.73.36-3.97,1.08-2.24,1.77-3,3.14-1.14,2.98-1.14,4.83.38,3.46,1.14,4.83c.76,1.37,1.76,2.41,3,3.14s2.56,1.08,3.97,1.08,2.78-.37,4.02-1.11,2.24-1.79,3-3.16,1.14-3,1.14-4.88-.38-3.45-1.14-4.8v-.02Z"/>
    <path class="cls-1" d="M342.25,38.57h-22.48c.18,2.22.96,3.96,2.33,5.22,1.37,1.26,3.05,1.89,5.05,1.89,2.89,0,4.94-1.24,6.16-3.72h8.38c-.89,2.96-2.59,5.39-5.11,7.3s-5.61,2.86-9.27,2.86c-2.96,0-5.61-.66-7.96-1.97s-4.18-3.17-5.49-5.58c-1.31-2.4-1.97-5.18-1.97-8.32s.65-5.97,1.94-8.38c1.29-2.4,3.11-4.25,5.44-5.55,2.33-1.29,5.01-1.94,8.05-1.94s5.54.63,7.85,1.89,4.11,3.04,5.38,5.36,1.92,4.97,1.92,7.96c0,1.11-.08,2.11-.22,3v-.02ZM334.43,33.35c-.04-2-.76-3.6-2.16-4.8-1.41-1.2-3.13-1.8-5.16-1.8-1.92,0-3.54.58-4.86,1.75s-2.12,2.78-2.41,4.86h14.6-.01Z"/>
    <path class="cls-1" d="M359.82,21.81c1.61-.92,3.45-1.39,5.52-1.39v8.16h-2.05c-2.44,0-4.28.57-5.52,1.72s-1.86,3.15-1.86,5.99v15.32h-7.77v-30.75h7.77v4.77c1-1.63,2.3-2.9,3.91-3.83h0Z"/>
    <path class="cls-1" d="M379.6,27.24v14.87c0,1.04.25,1.79.75,2.25s1.34.69,2.53.69h3.61v6.55h-4.88c-6.55,0-9.82-3.18-9.82-9.55v-14.82h-3.66v-6.38h3.66v-7.6h7.83v7.6h6.88v6.38h-6.9Z"/>
    <path class="cls-1" d="M392.62,15.89c-.91-.87-1.36-1.95-1.36-3.25s.45-2.38,1.36-3.25c.91-.87,2.04-1.3,3.41-1.3s2.51.44,3.41,1.3c.91.87,1.36,1.95,1.36,3.25s-.45,2.38-1.36,3.25c-.91.87-2.04,1.3-3.41,1.3s-2.51-.43-3.41-1.3ZM399.86,20.86v30.75h-7.77v-30.75s7.77,0,7.77,0Z"/>
    <path class="cls-1" d="M435.88,38.57h-22.48c.18,2.22.96,3.96,2.33,5.22,1.37,1.26,3.05,1.89,5.05,1.89,2.89,0,4.94-1.24,6.16-3.72h8.38c-.89,2.96-2.59,5.39-5.11,7.3s-5.61,2.86-9.27,2.86c-2.96,0-5.61-.66-7.96-1.97s-4.18-3.17-5.49-5.58c-1.31-2.4-1.97-5.18-1.97-8.32s.65-5.97,1.94-8.38c1.29-2.4,3.11-4.25,5.44-5.55,2.33-1.29,5.01-1.94,8.05-1.94s5.54.63,7.85,1.89,4.11,3.04,5.38,5.36,1.92,4.97,1.92,7.96c0,1.11-.08,2.11-.22,3v-.02ZM428.05,33.35c-.04-2-.76-3.6-2.16-4.8-1.41-1.2-3.13-1.8-5.16-1.8-1.92,0-3.54.58-4.86,1.75s-2.12,2.78-2.41,4.86h14.6-.01Z"/>
    <path class="cls-1" d="M446.76,50.75c-2-.91-3.58-2.14-4.75-3.69s-1.8-3.27-1.92-5.16h7.83c.15,1.18.73,2.17,1.75,2.94,1.02.78,2.28,1.17,3.8,1.17s2.64-.3,3.47-.89c.83-.59,1.25-1.35,1.25-2.28,0-1-.51-1.75-1.53-2.25s-2.64-1.04-4.86-1.64c-2.29-.55-4.17-1.13-5.63-1.72s-2.72-1.5-3.77-2.72-1.58-2.87-1.58-4.94c0-1.7.49-3.25,1.47-4.66s2.39-2.52,4.22-3.33,3.99-1.22,6.47-1.22c3.66,0,6.58.92,8.77,2.75,2.18,1.83,3.39,4.3,3.61,7.41h-7.44c-.11-1.22-.62-2.19-1.53-2.91s-2.12-1.08-3.63-1.08c-1.41,0-2.49.26-3.25.78s-1.14,1.24-1.14,2.17c0,1.04.52,1.82,1.55,2.36s2.65,1.08,4.83,1.64c2.22.56,4.05,1.13,5.49,1.72s2.69,1.51,3.75,2.75c1.05,1.24,1.6,2.88,1.64,4.91,0,1.78-.49,3.37-1.47,4.77-.98,1.41-2.39,2.51-4.22,3.3-1.83.8-3.97,1.19-6.41,1.19s-4.77-.45-6.77-1.36h0Z"/>
  </g>
  <path class="cls-1" d="M41.44,51.39l18.65-22.56c.76-.91.11-2.29-1.08-2.29h-5.71c-.42,0-.81-.19-1.08-.51L33.1,2.91c-.27-.32-.66-.51-1.08-.51h-11.39c-1.19,0-1.84,1.38-1.08,2.29l6.29,7.61c.76.91.11,2.29-1.08,2.29h-4.7c-.42,0-.81.19-1.08.51L.33,37.66c-.76.91-.11,2.29,1.08,2.29h5.08c.42,0,.81.19,1.08.51l19.28,23.31c.27.32.66.51,1.08.51h11.39c1.19,0,1.84-1.38,1.08-2.29l-6.45-7.8c-.76-.91-.11-2.29,1.08-2.29h5.33c.42,0,.81-.19,1.08-.51ZM16.21,36.64l13.8-16.68c.56-.68,1.6-.68,2.16,0l6.04,7.3c.27.32.66.51,1.08.51h3.68c1.19,0,1.84,1.38,1.08,2.29l-13.95,16.87c-.56.68-1.6.68-2.16,0l-6.19-7.49c-.27-.32-.66-.51-1.08-.51h-3.38c-1.19,0-1.84-1.38-1.08-2.29Z"/>
</svg>